# xmcd
#
# Track frame offsets: 
#        150
#        19327
#        41667
#        64552
#        83529
#        97943
#        114508
#        143147
#
# Disc length: 2138 seconds
#
# Revision: 0
# Processed by: cddbd v1.5.2PL0 Copyright (c) Steve Scherf et al.
# Submitted via: ExactAudioCopyFreeDBPlugin 1.0
#
DISCID=5c085808
DTITLE=Bernard Fines - Muito Merci [CD2]
DYEAR=2013
DGENRE=World
TTITLE0=le pain grillé
TTITLE1=F comme femme
TTITLE2=Plonger
TTITLE3=Marciac
TTITLE4=Non je ne regrette rien
TTITLE5=Le reste on s'en fiche
TTITLE6=Rua São Clemente
TTITLE7=Michele
EXTD=
EXTT0=
EXTT1=
EXTT2=
EXTT3=
EXTT4=
EXTT5=
EXTT6=
EXTT7=
PLAYORDER=
